PathFileType	4	(X/Y/Z)	C:/Users/opensim2020/Desktop/walking_exp_matlab/subject03_walking11_straight_03.trc																																																																																																																																								
DataRate	CameraRate	NumFrames	NumMarkers	Units	OrigDataRate	OrigDataStartFrame	OrigNumFrames																																																																																																																																				
100	100	7	46	mm	100	2740	380																																																																																																																																				
Frame#	Time	LFHD			RFHD			LBHD			RBHD			C7			T10			CLAV			STRN			RBAK			LSHO			LUPA			LELB			LFRM			LWRA			LWRB			LFIN			RSHO			RUPA			RELB			RFRM			RWRA			RWRB			RFIN			LASI			RASI			LPSI			RPSI			LTHI			LKNE			LTIB			LANK			LHEE			LTOE			RTHI			RKNE			RTIB			RANK			RHEE			RTOE			*39			*40			*41			*42			*43			*44			*45		
		X1	Y1	Z1	X2	Y2	Z2	X3	Y3	Z3	X4	Y4	Z4	X5	Y5	Z5	X6	Y6	Z6	X7	Y7	Z7	X8	Y8	Z8	X9	Y9	Z9	X10	Y10	Z10	X11	Y11	Z11	X12	Y12	Z12	X13	Y13	Z13	X14	Y14	Z14	X15	Y15	Z15	X16	Y16	Z16	X17	Y17	Z17	X18	Y18	Z18	X19	Y19	Z19	X20	Y20	Z20	X21	Y21	Z21	X22	Y22	Z22	X23	Y23	Z23	X24	Y24	Z24	X25	Y25	Z25	X26	Y26	Z26	X27	Y27	Z27	X28	Y28	Z28	X29	Y29	Z29	X30	Y30	Z30	X31	Y31	Z31	X32	Y32	Z32	X33	Y33	Z33	X34	Y34	Z34	X35	Y35	Z35	X36	Y36	Z36	X37	Y37	Z37	X38	Y38	Z38	X39	Y39	Z39	X40	Y40	Z40	X41	Y41	Z41	X42	Y42	Z42	X43	Y43	Z43	X44	Y44	Z44	X45	Y45	Z45	X46	Y46	Z46
																																																																																																																																											
1	0	-1111.72058	1627.46948	1318.92358	-1113.33447	1638.13562	1451.3634	-1231.03162	1564.3064	1325.8147	-1228.87012	1575.46912	1456.39124	-1252.13733	1425.32495	1386.49695	-1304.29517	1116.57031	1398.7699	-1132.44812	1344.04651	1392.32764	-1098.97632	1175.90967	1395.09888	-1312.3407	1259.71301	1492.43054	-1173.34595	1375.21045	1234.31812	-1177.03003	1178.39539	1164.64575	-1162.9458	1055.84033	1155.44421	-1124.82715	931.26306	1165.52234	-1101.52795	817.33337	1203.02551	-1113.16943	819.40381	1148.73547	-1083.41553	743.13831	1161.90137	-1175.33386	1376.11206	1550.16748	-1173.2981	1155.64063	1630.66931	-1156.27808	1044.05017	1645.66895	-1141.14319	908.14996	1652.47095	-1114.53906	810.79797	1619.07971	-1142.67773	808.26001	1665.24902	-1121.95691	736.83728	1657.41028	-1143.89758	944.98035	1288.31738	-1152.01245	941.85962	1524.31702	-1306.18176	976.73846	1333.03357	-1309.79907	977.76581	1482.52734	-1199.67188	646.98535	1251.30237	-1190.09033	470.30145	1296.42664	-1235.01953	279.40268	1294.91467	-1246.31299	70.12113	1339.83655	-1286.5564	34.90269	1375.16333	-1093.54016	35.07697	1366.94287	-1172.62073	645.1012	1569.49683	-1122.70898	471.55576	1548.32251	-1253.59607	335.53217	1558.698	-1405.80347	180.56348	1526.13562	-1462.42517	181.91678	1475.8396	-1327.67432	62.08779	1505.61401	-1203.09607	1677.63184	1367.91431	NaN	NaN	NaN	NaN	NaN	NaN	NaN	NaN	NaN	NaN	NaN	NaN	NaN	NaN	NaN	NaN	NaN	NaN
2	0.01	-1106.56726	1627.84363	1319.28857	-1108.32629	1638.25146	1451.80701	-1226.07568	1564.91711	1325.90234	-1223.91028	1575.75195	1456.36084	-1247.26624	1425.56604	1386.07849	-1299.19568	1116.74316	1397.74133	-1127.76526	1344.32288	1392.41406	-1093.40454	1176.81079	1395.40613	-1307.87903	1259.81091	1491.48889	-1167.67163	1375.75342	1234.37451	-1167.9292	1179.56421	1164.23193	-1150.82471	1057.2124	1154.91541	-1110.94788	933.45886	1164.51489	-1086.01941	819.83893	1201.73022	-1097.10718	821.95819	1147.27917	-1066.38025	745.86371	1160.38977	-1171.33105	1376.41931	1550.05127	-1170.45203	1156.13623	1630.97473	-1153.84204	1044.57349	1646.24341	-1138.7168	908.61774	1653.27869	-1111.7373	811.21576	1620.19739	-1140.31921	808.78082	1666.11035	-1119.65198	737.37292	1658.53821	-1138.24536	945.10376	1287.72876	-1146.68994	942.7641	1523.77539	-1300.6969	976.7453	1332.26892	-1304.54871	978.11578	1481.69055	-1193.82544	646.08722	1252.08337	-1187.21875	470.14059	1296.0282	-1233.62659	279.59558	1294.72119	-1246.2981	70.26178	1339.71875	-1287.03333	35.33155	1375.17798	-1093.52197	35.05087	1367.02148	-1163.6333	646.52661	1569.20471	-1110.61548	473.87296	1548.03601	-1238.7594	335.21967	1557.7959	-1388.27051	177.6357	1524.92615	-1445.0542	177.54387	1474.63855	-1306.08057	62.02179	1505.19373	-1197.69189	1678.18481	1367.84937	NaN	NaN	NaN	NaN	NaN	NaN	NaN	NaN	NaN	NaN	NaN	NaN	NaN	NaN	NaN	NaN	NaN	NaN
3	0.02	-1101.19019	1628.20398	1319.69775	-1103.44202	1638.48694	1452.28638	-1221.03088	1565.4646	1325.99634	-1219.17932	1576.14685	1456.64575	-1242.43787	1425.75916	1385.64453	-1294.0658	1116.86584	1396.64954	-1120.76501	1345.75964	1392.42676	-1088.39294	1177.19641	1395.46143	-1303.42419	1259.85132	1490.46472	-1162.06213	1376.41296	1234.42957	-1158.98022	1180.76563	1163.81824	-1139.82068	1059.02795	1154.01855	-1097.25354	935.85333	1163.63953	-1070.64001	822.29523	1200.39624	-1081.2345	824.69714	1145.93445	-1049.80481	748.76373	1158.97424	-1167.56531	1376.66553	1549.89929	-1167.30566	1156.4696	1631.05017	-1151.2489	1044.95752	1646.81702	-1136.09265	909.08221	1654.00745	-1108.81519	811.73364	1621.31018	-1137.83154	809.16382	1666.92029	-1117.11633	738.3197	1660.28955	-1132.70911	945.21515	1287.12036	-1141.29541	943.5531	1523.15161	-1295.21313	976.66327	1331.62134	-1299.26184	978.39038	1480.99084	-1190.36914	646.44067	1251.47131	-1184.32617	469.9697	1295.77344	-1232.2738	279.77451	1294.54932	-1246.25208	70.39085	1339.59729	-1287.11987	35.66273	1375.11072	-1093.50122	34.99496	1367.02576	-1154.5813	647.94745	1569.0199	-1098.80518	476.16934	1547.7052	-1224.14624	334.82809	1557.13855	-1370.0697	173.93022	1523.76917	-1426.90247	172.00365	1473.3645	-1284.19849	61.41915	1504.61194	-1192.73804	1678.52307	1368.56165	NaN	NaN	NaN	NaN	NaN	NaN	NaN	NaN	NaN	NaN	NaN	NaN	NaN	NaN	NaN	NaN	NaN	NaN
4	0.03	-1096.18372	1628.59229	1320.15015	-1098.22131	1638.38635	1452.53589	-1216.03101	1566.04443	1326.18884	-1214.26855	1576.42517	1456.72302	-1237.71936	1425.9458	1385.203	-1288.9375	1116.9408	1395.60938	-1116.10217	1345.99011	1392.55981	-1083.4375	1177.51941	1395.52417	-1299.01855	1259.84473	1489.45654	-1156.3866	1377.08728	1234.53357	-1150.20276	1182.02417	1163.44958	-1128.16614	1060.83875	1153.54199	-1083.81787	938.35504	1162.70947	-1055.2627	825.10858	1199.25793	-1065.72058	827.49701	1144.71375	-1033.40649	751.75079	1157.70679	-1163.5437	1376.78259	1549.83325	-1164.27905	1156.8042	1631.27478	-1148.65149	1045.35803	1647.28845	-1133.45178	909.45032	1654.74512	-1105.70654	812.14929	1622.16028	-1135.14978	809.53424	1667.47144	-1114.11353	738.39172	1660.84094	-1126.92493	945.72089	1286.7085	-1136.01978	944.28912	1522.64478	-1289.90149	976.6239	1331.10693	-1294.00757	978.62299	1480.30249	-1186.76343	646.47675	1250.76367	-1181.63477	469.86957	1295.42773	-1230.87842	279.9552	1294.39172	-1246.203	70.53422	1339.4812	-1287.07947	35.82139	1375.03955	-1093.49048	34.96521	1366.97815	-1145.72742	649.31909	1568.92847	-1087.32593	478.43845	1547.30042	-1209.56348	334.13928	1556.38257	-1351.45398	169.79193	1522.60315	-1408.21643	165.88838	1472.15771	-1261.73083	60.44298	1503.81763	-1187.55774	1678.90625	1368.96387	NaN	NaN	NaN	NaN	NaN	NaN	NaN	NaN	NaN	NaN	NaN	NaN	NaN	NaN	NaN	NaN	NaN	NaN
5	0.04	-1090.97668	1628.79785	1320.63647	-1093.36963	1638.48914	1453.28418	-1210.81067	1566.38037	1326.38354	-1209.45251	1576.68933	1456.97754	-1233.02734	1426.11597	1384.81775	-1283.86328	1117.00024	1394.65771	-1111.32849	1346.23547	1392.72498	-1078.49292	1177.8429	1395.55664	-1294.55591	1259.69922	1488.41174	-1150.70776	1377.67847	1234.67468	-1141.55078	1183.29504	1163.17419	-1117.11218	1062.44043	1152.97534	-1070.51416	941.00006	1161.96082	-1040.10217	827.97211	1198.19238	-1050.48181	830.39087	1143.61816	-1017.4826	754.69666	1156.46204	-1159.91528	1376.83374	1549.72498	-1161.21167	1157.05383	1631.40222	-1146.01428	1045.53711	1647.78308	-1130.65479	909.73206	1655.30945	-1102.49182	812.50214	1622.96497	-1132.29382	809.73236	1668.0061	-1111.25769	738.61774	1661.22253	-1121.58459	945.72504	1286.16406	-1130.74548	944.95642	1522.12073	-1284.53723	976.48499	1330.6366	-1288.75378	978.80273	1479.81226	-1182.00171	645.95624	1251.15149	-1178.84961	469.72101	1295.32617	-1229.64099	280.21405	1293.97754	-1246.04822	70.69583	1339.40796	-1287.10913	35.90643	1374.93982	-1093.49561	34.86311	1366.85022	-1137.01514	650.58014	1568.98828	-1076.18054	480.62207	1546.86279	-1194.88306	333.13422	1555.63208	-1332.03406	164.90083	1521.47485	-1388.82483	159.11533	1471.04993	-1238.47961	59.12294	1502.97266	-1182.13452	1679.51355	1369.14197	NaN	NaN	NaN	NaN	NaN	NaN	NaN	NaN	NaN	NaN	NaN	NaN	NaN	NaN	NaN	NaN	NaN	NaN
6	0.05	-1085.65454	1628.97681	1321.20874	-1088.24976	1638.40137	1453.76904	-1205.67297	1566.77515	1326.64014	-1204.53662	1576.83582	1457.26367	-1228.17334	1426.14917	1384.42957	-1278.69385	1116.94421	1393.70361	-1106.57495	1346.30603	1392.95776	-1073.55469	1177.97449	1395.62976	-1290.07019	1259.46655	1487.34546	-1144.89587	1378.17224	1234.93872	-1132.92114	1184.68079	1162.94092	-1106.19067	1064.06445	1152.49573	-1057.67053	943.51257	1161.13037	-1025.07898	831.02393	1197.17676	-1035.56946	833.28625	1142.69397	-1001.76776	757.83167	1155.35901	-1155.88013	1376.72314	1549.76733	-1158.04712	1157.07312	1631.625	-1143.28345	1045.68726	1648.30298	-1127.71338	909.82507	1655.83777	-1099.14001	812.74323	1623.6698	-1129.2439	809.84772	1668.42529	-1107.77161	738.42462	1661.47363	-1116.33875	945.63666	1285.51086	-1125.38599	945.49933	1521.56897	-1279.27686	976.2995	1330.26086	-1283.42603	978.81616	1479.30286	-1177.96387	645.83923	1251.17737	-1176.04578	469.55011	1295.06433	-1228.23828	280.35236	1293.89136	-1245.94153	70.87409	1339.33179	-1287.09204	36.11555	1374.91406	-1093.39539	34.90609	1366.86365	-1128.28821	651.79669	1569.06787	-1065.2926	482.64951	1546.45801	-1180.00244	331.78363	1554.97009	-1312.19055	159.61525	1520.36316	-1368.77258	151.80629	1469.96521	-1214.65747	57.81073	1502.16284	NaN	NaN	NaN	NaN	NaN	NaN	NaN	NaN	NaN	NaN	NaN	NaN	NaN	NaN	NaN	NaN	NaN	NaN	NaN	NaN	NaN
7	0.06	-1080.34668	1629.08154	1321.85901	-1083.27417	1638.35095	1454.42432	-1200.4458	1567.09363	1326.97656	-1199.71875	1576.96667	1457.67529	-1223.26855	1426.17871	1384.16748	-1273.54089	1116.86707	1392.91724	-1101.63269	1346.39844	1393.19189	-1068.51709	1178.12988	1395.65857	-1285.59216	1259.16052	1486.26831	-1139.07874	1378.62183	1235.10547	-1124.45251	1185.58618	1162.63208	-1096.02319	1065.88586	1151.91711	-1045.00232	946.03925	1160.47168	-1010.27759	834.03302	1196.28845	-1021.06061	836.17957	1141.90857	-986.336	760.92615	1154.43396	-1152.15637	1376.53357	1549.70593	-1154.90002	1156.94751	1631.71008	-1140.47998	1045.64307	1648.64966	-1124.66455	909.80609	1656.26709	-1095.63855	812.85626	1624.21008	-1126.02002	809.73767	1668.66528	-1104.56238	738.68652	1662.047	-1111.07397	945.45801	1285.00415	-1119.87695	946.10419	1520.96838	-1273.9729	976.0246	1329.96826	-1278.13733	978.79651	1478.90576	-1174.02856	645.6106	1251.03625	-1173.46399	469.35147	1294.91821	-1226.65405	280.32321	1294.11365	-1245.82703	70.96819	1339.27942	-1287.12366	36.3756	1374.97461	-1093.41724	34.89047	1366.80298	-1119.75024	653.01587	1569.26599	-1054.79822	484.63757	1546.12769	-1165.15076	330.17252	1554.35925	-1291.7135	153.83028	1519.22778	-1347.72461	143.65392	1468.49915	-1190.38123	56.34704	1501.12683	NaN	NaN	NaN	NaN	NaN	NaN	NaN	NaN	NaN	NaN	NaN	NaN	NaN	NaN	NaN	NaN	NaN	NaN	NaN	NaN	NaN
